<mxfile host="app.diagrams.net" modified="2023-03-14T23:21:56.296Z" agent="5.0 (Windows NT 10.0; Win64; x64) AppleWebKit/537.36 (KHTML, like Gecko) Chrome/111.0.0.0 Safari/537.36" etag="OjUQCMcNM-O9W63oFioj" version="21.0.6" type="github">
  <diagram name="Page-1" id="GzqRdv0MfnCeHE3rHot7">
    <mxGraphModel dx="794" dy="430" grid="1" gridSize="10" guides="1" tooltips="1" connect="1" arrows="1" fold="1" page="1" pageScale="1" pageWidth="850" pageHeight="1100" math="0" shadow="0">
      <root>
        <mxCell id="0" />
        <mxCell id="1" parent="0" />
        <mxCell id="c4tgwj8hFYufmcDHta1d-2" value="user service api" style="rounded=1;whiteSpace=wrap;html=1;" vertex="1" parent="1">
          <mxGeometry x="350" y="200" width="120" height="60" as="geometry" />
        </mxCell>
        <mxCell id="c4tgwj8hFYufmcDHta1d-3" value="" style="endArrow=classic;html=1;rounded=0;entryX=0;entryY=0.25;entryDx=0;entryDy=0;" edge="1" parent="1" target="c4tgwj8hFYufmcDHta1d-2">
          <mxGeometry width="50" height="50" relative="1" as="geometry">
            <mxPoint x="250" y="215" as="sourcePoint" />
            <mxPoint x="200" y="220" as="targetPoint" />
          </mxGeometry>
        </mxCell>
        <mxCell id="c4tgwj8hFYufmcDHta1d-4" value="Employee&lt;br&gt;" style="shape=umlActor;verticalLabelPosition=bottom;verticalAlign=top;html=1;outlineConnect=0;" vertex="1" parent="1">
          <mxGeometry x="210" y="200" width="30" height="60" as="geometry" />
        </mxCell>
        <mxCell id="c4tgwj8hFYufmcDHta1d-5" value="" style="endArrow=classic;html=1;rounded=0;" edge="1" parent="1">
          <mxGeometry width="50" height="50" relative="1" as="geometry">
            <mxPoint x="250" y="240" as="sourcePoint" />
            <mxPoint x="350" y="240" as="targetPoint" />
          </mxGeometry>
        </mxCell>
        <mxCell id="c4tgwj8hFYufmcDHta1d-6" value="/login" style="text;html=1;strokeColor=none;fillColor=none;align=center;verticalAlign=middle;whiteSpace=wrap;rounded=0;" vertex="1" parent="1">
          <mxGeometry x="260" y="180" width="60" height="30" as="geometry" />
        </mxCell>
        <mxCell id="c4tgwj8hFYufmcDHta1d-7" value="/register" style="text;html=1;strokeColor=none;fillColor=none;align=center;verticalAlign=middle;whiteSpace=wrap;rounded=0;" vertex="1" parent="1">
          <mxGeometry x="260" y="240" width="60" height="30" as="geometry" />
        </mxCell>
        <mxCell id="c4tgwj8hFYufmcDHta1d-8" value="" style="rounded=1;whiteSpace=wrap;html=1;" vertex="1" parent="1">
          <mxGeometry x="600" y="200" width="120" height="60" as="geometry" />
        </mxCell>
        <mxCell id="c4tgwj8hFYufmcDHta1d-9" value="" style="endArrow=classic;html=1;rounded=0;entryX=0;entryY=0.25;entryDx=0;entryDy=0;exitX=1;exitY=0.25;exitDx=0;exitDy=0;" edge="1" parent="1" source="c4tgwj8hFYufmcDHta1d-2" target="c4tgwj8hFYufmcDHta1d-8">
          <mxGeometry width="50" height="50" relative="1" as="geometry">
            <mxPoint x="380" y="250" as="sourcePoint" />
            <mxPoint x="430" y="200" as="targetPoint" />
            <Array as="points" />
          </mxGeometry>
        </mxCell>
        <mxCell id="c4tgwj8hFYufmcDHta1d-13" value="" style="endArrow=classic;html=1;rounded=0;entryX=0.017;entryY=0.367;entryDx=0;entryDy=0;entryPerimeter=0;exitX=1.028;exitY=0.389;exitDx=0;exitDy=0;exitPerimeter=0;startArrow=none;" edge="1" parent="1" source="c4tgwj8hFYufmcDHta1d-21" target="c4tgwj8hFYufmcDHta1d-8">
          <mxGeometry width="50" height="50" relative="1" as="geometry">
            <mxPoint x="480" y="225" as="sourcePoint" />
            <mxPoint x="610" y="225" as="targetPoint" />
          </mxGeometry>
        </mxCell>
        <mxCell id="c4tgwj8hFYufmcDHta1d-14" value="" style="endArrow=classic;html=1;rounded=0;" edge="1" parent="1">
          <mxGeometry width="50" height="50" relative="1" as="geometry">
            <mxPoint x="470" y="235" as="sourcePoint" />
            <mxPoint x="600" y="235" as="targetPoint" />
          </mxGeometry>
        </mxCell>
        <mxCell id="c4tgwj8hFYufmcDHta1d-15" value="" style="endArrow=classic;html=1;rounded=0;exitX=1;exitY=0.75;exitDx=0;exitDy=0;startArrow=none;" edge="1" parent="1" source="c4tgwj8hFYufmcDHta1d-23">
          <mxGeometry width="50" height="50" relative="1" as="geometry">
            <mxPoint x="500" y="245" as="sourcePoint" />
            <mxPoint x="600" y="245" as="targetPoint" />
          </mxGeometry>
        </mxCell>
        <mxCell id="c4tgwj8hFYufmcDHta1d-22" value="" style="endArrow=none;html=1;rounded=0;entryX=0.017;entryY=0.367;entryDx=0;entryDy=0;entryPerimeter=0;exitX=1.028;exitY=0.389;exitDx=0;exitDy=0;exitPerimeter=0;" edge="1" parent="1" source="c4tgwj8hFYufmcDHta1d-2" target="c4tgwj8hFYufmcDHta1d-21">
          <mxGeometry width="50" height="50" relative="1" as="geometry">
            <mxPoint x="473" y="223" as="sourcePoint" />
            <mxPoint x="602" y="222" as="targetPoint" />
          </mxGeometry>
        </mxCell>
        <mxCell id="c4tgwj8hFYufmcDHta1d-24" value="" style="endArrow=none;html=1;rounded=0;exitX=1;exitY=0.75;exitDx=0;exitDy=0;" edge="1" parent="1" source="c4tgwj8hFYufmcDHta1d-2" target="c4tgwj8hFYufmcDHta1d-23">
          <mxGeometry width="50" height="50" relative="1" as="geometry">
            <mxPoint x="470" y="245" as="sourcePoint" />
            <mxPoint x="600" y="245" as="targetPoint" />
          </mxGeometry>
        </mxCell>
        <mxCell id="c4tgwj8hFYufmcDHta1d-25" value="" style="group" vertex="1" connectable="0" parent="1">
          <mxGeometry x="510" y="170" width="60" height="30" as="geometry" />
        </mxCell>
        <mxCell id="c4tgwj8hFYufmcDHta1d-19" value="/create" style="text;html=1;strokeColor=none;fillColor=none;align=center;verticalAlign=middle;whiteSpace=wrap;rounded=0;flipV=1;flipH=1;" vertex="1" parent="c4tgwj8hFYufmcDHta1d-25">
          <mxGeometry width="60" height="30" as="geometry" />
        </mxCell>
        <mxCell id="c4tgwj8hFYufmcDHta1d-20" value="/create" style="text;html=1;strokeColor=none;fillColor=none;align=center;verticalAlign=middle;whiteSpace=wrap;rounded=0;flipV=1;flipH=1;" vertex="1" parent="c4tgwj8hFYufmcDHta1d-25">
          <mxGeometry width="60" height="30" as="geometry" />
        </mxCell>
        <mxCell id="c4tgwj8hFYufmcDHta1d-21" value="/create" style="text;html=1;strokeColor=none;fillColor=none;align=center;verticalAlign=middle;whiteSpace=wrap;rounded=0;flipV=1;flipH=1;" vertex="1" parent="c4tgwj8hFYufmcDHta1d-25">
          <mxGeometry width="60" height="30" as="geometry" />
        </mxCell>
        <mxCell id="c4tgwj8hFYufmcDHta1d-23" value="/create" style="text;html=1;strokeColor=none;fillColor=none;align=center;verticalAlign=middle;whiteSpace=wrap;rounded=0;flipV=1;flipH=1;" vertex="1" parent="c4tgwj8hFYufmcDHta1d-25">
          <mxGeometry width="60" height="30" as="geometry" />
        </mxCell>
      </root>
    </mxGraphModel>
  </diagram>
</mxfile>
